<svg width="48" height="48" viewBox="0 0 48 48" fill="none" xmlns="http://www.w3.org/2000/svg">
<path d="M48 0H0V48H48V0Z" fill="url(#paint0_linear_54_9514)"/>
<path d="M21.225 23.025C21.225 23.025 23.925 22.8 23.925 19.65C23.925 16.5 21.75 15 18.975 15H9.75V32.7H18.975C18.975 32.7 24.6 32.85 24.6 27.45C24.525 27.45 24.825 23.025 21.225 23.025ZM13.8 18.15H18.975C18.975 18.15 20.25 18.15 20.25 20.025C20.25 21.9 19.5 22.125 18.675 22.125H13.875V18.15H13.8ZM18.675 29.475H13.8V24.75H18.975C18.975 24.75 20.85 24.75 20.85 27.15C20.775 29.25 19.425 29.475 18.675 29.475Z" fill="#F1F2F2"/>
<path d="M35.55 16.05H28.275V18.225H35.55V16.05Z" fill="#F1F2F2"/>
<path d="M32.025 19.5C25.2 19.5 25.2 26.325 25.2 26.325C25.2 26.325 24.75 33.075 32.025 33.075C32.025 33.075 38.1 33.45 38.1 28.35H34.95C34.95 28.35 35.025 30.225 32.1 30.225C32.1 30.225 28.95 30.45 28.95 27.15H38.1C38.175 27.15 39.225 19.5 32.025 19.5ZM29.025 24.75C29.025 24.75 29.4 22.05 32.1 22.05C34.8 22.05 34.8 24.75 34.8 24.75H29.025Z" fill="#F1F2F2"/>
<defs>
<linearGradient id="paint0_linear_54_9514" x1="1.82558" y1="45.8187" x2="48.5756" y2="-0.18135" gradientUnits="userSpaceOnUse">
<stop offset="0.2887" stop-color="#3F56FF"/>
<stop offset="1" stop-color="#3FA1FF"/>
</linearGradient>
</defs>
</svg>
