<svg width="48" height="48" viewBox="0 0 48 48" fill="none" xmlns="http://www.w3.org/2000/svg">
<path d="M45.5999 43.7568C45.5999 44.7744 44.7743 45.6 43.7759 45.6H4.2431C3.2255 45.6 2.3999 44.7744 2.3999 43.776V4.24319C2.3999 3.22559 3.2255 2.39999 4.2239 2.39999H43.7567C44.7743 2.39999 45.5999 3.22559 45.5999 4.22399V43.7568Z" fill="#F08705"/>
<path d="M45.6 43.7568C45.6 44.7744 44.7744 45.6 43.776 45.6H17.2032L8.60156 36.864L13.9584 28.128L29.8368 8.40958L45.6 24.6336V43.7568V43.7568Z" fill="#DF6C0C"/>
<path d="M37.8432 26.5537H33.2928L28.4928 18.3553C29.5872 18.1249 30.3744 17.1649 30.3552 16.0513V9.88806C30.3552 8.58246 29.3184 7.52646 28.0128 7.52646H27.9936H19.9872C18.6816 7.52646 17.6256 8.56326 17.6256 9.86886V9.88806V16.0513C17.6256 17.1649 18.3936 18.1249 19.488 18.3553L14.688 26.5537H10.1568C8.85117 26.5537 7.79517 27.5905 7.79517 28.8961V28.9153V35.0785C7.79517 36.3841 8.83197 37.4401 10.1376 37.4401H10.1568H18.1632C19.4688 37.4401 20.5248 36.4033 20.5248 35.0977V35.0785V28.9153C20.5248 27.6097 19.488 26.5537 18.1824 26.5537H18.1632H17.3952L22.1568 18.4129H25.8624L30.6432 26.5537H29.856C28.5504 26.5537 27.4944 27.5905 27.4944 28.8961V28.9153V35.0785C27.4944 36.3841 28.5312 37.4401 29.8368 37.4401H29.856H37.8624C39.168 37.4401 40.224 36.4033 40.224 35.0977V35.0785V28.9153C40.224 27.6097 39.1872 26.5537 37.8816 26.5537C37.8624 26.5537 37.8624 26.5537 37.8432 26.5537Z" fill="white"/>
</svg>
