<svg width="48" height="48" viewBox="0 0 48 48" fill="none" xmlns="http://www.w3.org/2000/svg">
<rect x="0.521729" y="0.521729" width="46.9565" height="46.9565" rx="4.17391" fill="#3A5E74"/>
<path d="M12.9463 37.3819H18.1834C18.4604 37.3819 18.7168 37.2354 18.8576 36.9968L23.6031 28.9485C23.7055 28.775 23.9575 28.778 24.0557 28.9539L28.5326 36.9805C28.6709 37.2283 28.9324 37.3819 29.2161 37.3819H34.7373C35.3527 37.3819 35.7273 36.7043 35.4001 36.1831L27.4047 23.4473C27.3513 23.3621 27.3515 23.2538 27.4054 23.1689L34.886 11.3757C35.2165 10.8547 34.8421 10.1739 34.2251 10.1739H29.0335C28.751 10.1739 28.4904 10.3261 28.3517 10.5722L24.0737 18.1618C23.9732 18.34 23.7162 18.3386 23.6177 18.1593L19.4562 10.5799C19.3187 10.3295 19.0558 10.1739 18.7702 10.1739H13.3568C12.7424 10.1739 12.3676 10.8494 12.6928 11.3707L20.187 23.3847C20.24 23.4696 20.2397 23.5774 20.1863 23.662L12.2845 36.1815C11.9555 36.7027 12.33 37.3819 12.9463 37.3819Z" fill="#86B1CD" stroke="white" stroke-width="0.521739"/>
</svg>
