<svg width="48" height="48" viewBox="0 0 48 48" fill="none" xmlns="http://www.w3.org/2000/svg">
<rect width="48" height="48" fill="white"/>
<path d="M10.0703 18.5234H11.4766V30H10.0703V18.5234ZM16.9141 29.0938C17.8464 29.0938 18.4844 28.7422 18.8281 28.0391C19.1771 27.3307 19.3516 26.5443 19.3516 25.6797C19.3516 24.8984 19.2266 24.263 18.9766 23.7734C18.5807 23.0026 17.8984 22.6172 16.9297 22.6172C16.0703 22.6172 15.4453 22.9453 15.0547 23.6016C14.6641 24.2578 14.4688 25.0495 14.4688 25.9766C14.4688 26.8672 14.6641 27.6094 15.0547 28.2031C15.4453 28.7969 16.0651 29.0938 16.9141 29.0938ZM16.9688 21.3906C18.0469 21.3906 18.9583 21.75 19.7031 22.4688C20.4479 23.1875 20.8203 24.2448 20.8203 25.6406C20.8203 26.9896 20.4922 28.1042 19.8359 28.9844C19.1797 29.8646 18.1615 30.3047 16.7812 30.3047C15.6302 30.3047 14.7161 29.9167 14.0391 29.1406C13.362 28.3594 13.0234 27.3125 13.0234 26C13.0234 24.5938 13.3802 23.474 14.0938 22.6406C14.8073 21.8073 15.7656 21.3906 16.9688 21.3906ZM25.4531 21.4844C26.1094 21.4844 26.6823 21.6458 27.1719 21.9688C27.4375 22.151 27.7083 22.4167 27.9844 22.7656V21.7109H29.2812V29.3203C29.2812 30.3828 29.125 31.2214 28.8125 31.8359C28.2292 32.9714 27.1276 33.5391 25.5078 33.5391C24.6068 33.5391 23.849 33.3359 23.2344 32.9297C22.6198 32.5286 22.276 31.8984 22.2031 31.0391H23.6328C23.7005 31.4141 23.8359 31.7031 24.0391 31.9062C24.3568 32.2188 24.8568 32.375 25.5391 32.375C26.6172 32.375 27.3229 31.9948 27.6562 31.2344C27.8542 30.7865 27.9453 29.987 27.9297 28.8359C27.6484 29.263 27.3099 29.5807 26.9141 29.7891C26.5182 29.9974 25.9948 30.1016 25.3438 30.1016C24.4375 30.1016 23.6432 29.7812 22.9609 29.1406C22.2839 28.4948 21.9453 27.4297 21.9453 25.9453C21.9453 24.5443 22.2865 23.4505 22.9688 22.6641C23.6562 21.8776 24.4844 21.4844 25.4531 21.4844ZM27.9844 25.7812C27.9844 24.7448 27.7708 23.9766 27.3438 23.4766C26.9167 22.9766 26.3724 22.7266 25.7109 22.7266C24.7214 22.7266 24.0443 23.1901 23.6797 24.1172C23.487 24.612 23.3906 25.2604 23.3906 26.0625C23.3906 27.0052 23.5807 27.724 23.9609 28.2188C24.3464 28.7083 24.862 28.9531 25.5078 28.9531C26.5182 28.9531 27.2292 28.4974 27.6406 27.5859C27.8698 27.0703 27.9844 26.4688 27.9844 25.7812ZM34.7266 29.0938C35.6589 29.0938 36.2969 28.7422 36.6406 28.0391C36.9896 27.3307 37.1641 26.5443 37.1641 25.6797C37.1641 24.8984 37.0391 24.263 36.7891 23.7734C36.3932 23.0026 35.7109 22.6172 34.7422 22.6172C33.8828 22.6172 33.2578 22.9453 32.8672 23.6016C32.4766 24.2578 32.2812 25.0495 32.2812 25.9766C32.2812 26.8672 32.4766 27.6094 32.8672 28.2031C33.2578 28.7969 33.8776 29.0938 34.7266 29.0938ZM34.7812 21.3906C35.8594 21.3906 36.7708 21.75 37.5156 22.4688C38.2604 23.1875 38.6328 24.2448 38.6328 25.6406C38.6328 26.9896 38.3047 28.1042 37.6484 28.9844C36.9922 29.8646 35.974 30.3047 34.5938 30.3047C33.4427 30.3047 32.5286 29.9167 31.8516 29.1406C31.1745 28.3594 30.8359 27.3125 30.8359 26C30.8359 24.5938 31.1927 23.474 31.9062 22.6406C32.6198 21.8073 33.5781 21.3906 34.7812 21.3906Z" fill="black"/>
</svg>
