<svg width="48" height="48" viewBox="0 0 48 48" fill="none" xmlns="http://www.w3.org/2000/svg">
<path d="M16.125 27C22.1311 27 27 22.1311 27 16.125C27 10.1189 22.1311 5.25 16.125 5.25C10.1189 5.25 5.25 10.1189 5.25 16.125C5.25 22.1311 10.1189 27 16.125 27Z" fill="#28A8EA"/>
<path d="M31.875 42.75C37.8811 42.75 42.75 37.8811 42.75 31.875C42.75 25.8689 37.8811 21 31.875 21C25.8689 21 21 25.8689 21 31.875C21 37.8811 25.8689 42.75 31.875 42.75Z" fill="#28A8EA"/>
<path d="M24 42C33.9411 42 42 33.9411 42 24C42 14.0589 33.9411 6 24 6C14.0589 6 6 14.0589 6 24C6 33.9411 14.0589 42 24 42Z" fill="#28A8EA"/>
<path fill-rule="evenodd" clip-rule="evenodd" d="M19.332 23.6582C18.6283 23.1946 18.0412 22.5748 17.6166 21.8469C17.2063 21.0784 17.0037 20.2161 17.029 19.3453C16.9977 18.2401 17.3748 17.1622 18.0882 16.3174C18.8293 15.4692 19.782 14.8324 20.8493 14.4719C22.0102 14.062 23.2335 13.8562 24.4647 13.8636C25.2704 13.856 26.0753 13.9177 26.8704 14.0482C27.4392 14.1361 27.9978 14.2804 28.5381 14.4788C29.0343 14.6469 29.4824 14.933 29.8435 15.3126C30.1097 15.6248 30.2531 16.0234 30.2467 16.4336C30.2563 16.6467 30.2238 16.8596 30.1511 17.0602C30.0784 17.2607 29.9669 17.445 29.823 17.6024C29.6867 17.7475 29.5212 17.8621 29.3374 17.9387C29.1537 18.0153 28.9558 18.0521 28.7568 18.0467C28.4829 18.0447 28.2126 17.9841 27.964 17.8689C27.3521 17.595 26.7218 17.3644 26.0776 17.1787C25.4845 17.0224 24.8731 16.9465 24.2597 16.9531C23.461 16.9235 22.6706 17.1252 21.9838 17.534C21.6937 17.7102 21.4562 17.9612 21.2963 18.2606C21.1364 18.56 21.0599 18.8969 21.0748 19.236C21.0705 19.6808 21.2397 20.1098 21.5463 20.432C21.911 20.8102 22.3419 21.1183 22.8176 21.3411C23.3508 21.6055 24.1458 21.9564 25.2028 22.3937C25.32 22.4307 25.4342 22.4764 25.5446 22.5304C26.5761 22.9384 27.5649 23.4466 28.4971 24.0478C29.2334 24.5279 29.8542 25.1651 30.3151 25.9137C30.7686 26.7001 30.9956 27.5967 30.9712 28.5041C31.0093 29.6157 30.6907 30.7102 30.0621 31.6277C29.422 32.4963 28.5366 33.1533 27.5198 33.5142C26.2946 33.9518 25 34.1625 23.6993 34.1362C21.9118 34.1991 20.1327 33.8629 18.4915 33.152C18.0715 32.9652 17.7032 32.679 17.4185 32.3181C17.1824 31.9877 17.0601 31.5895 17.0699 31.1835C17.0581 30.9693 17.0929 30.7551 17.172 30.5557C17.251 30.3562 17.3724 30.1763 17.5277 30.0284C17.8537 29.7428 18.277 29.5936 18.7101 29.6114C19.192 29.6181 19.6653 29.74 20.0906 29.9668C20.619 30.2313 21.0359 30.4295 21.3414 30.5616C21.6903 30.7077 22.0517 30.8221 22.4213 30.9033C22.8768 31.0033 23.3421 31.0515 23.8085 31.0468C24.633 31.1054 25.4535 30.8865 26.1392 30.4249C26.3959 30.224 26.6011 29.9648 26.7378 29.6689C26.8744 29.3729 26.9386 29.0486 26.9251 28.7229C26.9261 28.2606 26.75 27.8155 26.4331 27.4789C26.0142 27.0474 25.5241 26.6914 24.9842 26.4264C24.3462 26.0893 23.4486 25.6792 22.2913 25.1961C21.256 24.7836 20.2646 24.2684 19.332 23.6582" fill="white"/>
<path opacity="0.1" fill-rule="evenodd" clip-rule="evenodd" d="M19.5226 5.79749C19.0471 5.63827 18.5609 5.51296 18.0676 5.42249C15.1063 6.37286 12.4143 8.01581 10.2151 10.215C8.01593 12.4142 6.37298 15.1061 5.42261 18.0675C5.5131 18.5607 5.63841 19.0469 5.79761 19.5225C5.93057 19.953 6.09863 20.3719 6.30011 20.775C6.95158 17.1752 8.68677 13.8602 11.2735 11.2734C13.8603 8.68665 17.1753 6.95146 20.7751 6.29999C20.372 6.09853 19.9531 5.93047 19.5226 5.79749V5.79749Z" fill="black"/>
<path opacity="0.1" fill-rule="evenodd" clip-rule="evenodd" d="M19.5226 5.79749C16.2011 6.61672 13.1667 8.32842 10.7476 10.7475C8.32854 13.1666 6.61684 16.2009 5.79761 19.5225C5.93057 19.953 6.09863 20.3719 6.30011 20.775C6.95158 17.1752 8.68677 13.8602 11.2735 11.2734C13.8603 8.68665 17.1753 6.95146 20.7751 6.29999C20.372 6.09853 19.9531 5.93047 19.5226 5.79749V5.79749Z" fill="black"/>
<path opacity="0.1" fill-rule="evenodd" clip-rule="evenodd" d="M42.2026 28.4775C42.0696 28.047 41.9016 27.6281 41.7001 27.225C41.0486 30.8248 39.3134 34.1398 36.7267 36.7266C34.1399 39.3134 30.8249 41.0485 27.2251 41.7C27.6282 41.9015 28.0471 42.0695 28.4776 42.2025C28.9531 42.3617 29.4393 42.487 29.9326 42.5775C32.8939 41.6271 35.5859 39.9842 37.7851 37.785C39.9843 35.5858 41.6272 32.8939 42.5776 29.9325C42.4871 29.4393 42.3618 28.953 42.2026 28.4775Z" fill="black"/>
<path opacity="0.1" fill-rule="evenodd" clip-rule="evenodd" d="M41.7001 27.225C41.0486 30.8248 39.3134 34.1398 36.7267 36.7266C34.1399 39.3134 30.8249 41.0485 27.2251 41.7C27.6282 41.9015 28.0471 42.0695 28.4776 42.2025C31.7991 41.3833 34.8335 39.6716 37.2526 37.2525C39.6717 34.8334 41.3834 31.7991 42.2026 28.4775C42.0696 28.047 41.9016 27.6281 41.7001 27.225Z" fill="black"/>
</svg>
