<svg width="88" height="40" viewBox="0 0 88 40" fill="none" xmlns="http://www.w3.org/2000/svg">
<rect x="0.573171" y="0.573171" width="86.8537" height="38.8537" rx="3.42683" stroke="#ECE9F1" stroke-width="1.14634"/>
<path d="M31.1019 11.2269H35.3341L41.6041 28.9516H37.5768L36.4434 25.2981H29.8961L28.6662 28.9516H24.7596L31.1019 11.2269ZM30.8848 22.2355H35.4065L33.1999 15.2179H33.1517L30.8848 22.2355Z" fill="#ECE9F1"/>
<path d="M57.284 11.1741C57.284 11.2312 57.2483 11.2955 57.1769 11.3669C57.1197 11.4383 56.984 11.5026 56.7698 11.5597C56.3555 11.6883 55.8698 11.8883 55.3127 12.1597C54.8413 12.4025 54.2628 12.7311 53.5771 13.1453C52.8915 13.5453 52.0987 14.0881 51.1988 14.7738C50.4274 15.3452 49.6774 15.9666 48.9489 16.6379C48.3204 17.2093 47.6776 17.8593 47.0205 18.5878C46.3634 19.302 45.8063 20.052 45.3492 20.8376L45.3063 20.9233C45.2778 20.9805 45.2635 21.0447 45.2635 21.1162C45.2635 21.2019 45.292 21.2662 45.3492 21.309C45.392 21.3662 45.5063 21.3947 45.692 21.3947C45.8634 21.3947 46.1348 21.3662 46.5062 21.309C46.8919 21.2519 47.3133 21.1876 47.7704 21.1162C48.2418 21.0305 48.7132 20.9519 49.1846 20.8805C49.6703 20.809 50.0917 20.7519 50.4488 20.7091C50.9488 19.9805 51.4416 19.302 51.9273 18.6735C52.4272 18.0307 52.8772 17.4736 53.2772 17.0022C53.7486 16.4451 54.1985 15.9451 54.6271 15.5023C54.6556 15.4594 54.6985 15.4166 54.7556 15.3737C54.8556 15.3023 54.9699 15.2666 55.0985 15.2666C55.1842 15.2666 55.2556 15.2809 55.3127 15.3095C55.327 15.3095 55.3413 15.3166 55.3556 15.3309C55.3842 15.3595 55.3984 15.3952 55.3984 15.438C55.3984 15.4952 55.3699 15.5594 55.3127 15.6309C54.4128 16.6879 53.6557 17.6307 53.0415 18.4592C52.4272 19.2877 51.913 20.002 51.4987 20.6019C52.213 20.5162 52.8772 20.4734 53.4914 20.4734C53.6343 20.4734 53.77 20.4805 53.8986 20.4948C54.0271 20.4948 54.1485 20.5019 54.2628 20.5162C54.5199 20.5448 54.7556 20.5876 54.9699 20.6448C55.1556 20.7019 55.3199 20.7805 55.4627 20.8805C55.6199 20.9662 55.7056 21.0876 55.7198 21.2447C55.7198 21.2876 55.7056 21.3304 55.677 21.3733C55.6627 21.4161 55.5984 21.4376 55.4841 21.4376C55.3699 21.4376 55.1913 21.3876 54.9485 21.2876C54.7771 21.2304 54.5771 21.1805 54.3485 21.1376C54.1485 21.109 53.9057 21.0805 53.62 21.0519C53.3343 21.0233 53.0058 21.009 52.6344 21.009C52.3915 21.009 52.1487 21.0162 51.9058 21.0305C51.6773 21.0447 51.4345 21.0662 51.1773 21.0947C51.0059 21.3662 50.8559 21.609 50.7274 21.8233C50.6131 22.0232 50.5202 22.1947 50.4488 22.3375C50.3631 22.4946 50.2845 22.6303 50.2131 22.7446C49.8703 23.3446 49.5989 23.866 49.3989 24.3088C49.1989 24.7516 49.0418 25.123 48.9275 25.423C48.7989 25.7801 48.7204 26.0729 48.6918 26.3015C48.6489 26.5729 48.5918 26.7729 48.5204 26.9015C48.449 27.0443 48.3775 27.1514 48.3061 27.2229C48.2347 27.2943 48.149 27.33 48.049 27.33H48.0061C47.8204 27.33 47.699 27.2657 47.6419 27.1372C47.5847 27.0229 47.5562 26.8943 47.5562 26.7515C47.5562 26.6372 47.5633 26.5586 47.5776 26.5158C47.5919 26.4729 47.599 26.4372 47.599 26.4086C47.8276 25.5516 48.1633 24.6802 48.6061 23.7945C49.0632 22.9089 49.5632 22.0518 50.106 21.2233C49.5203 21.2947 48.9204 21.3804 48.3061 21.4804C47.6919 21.5804 47.1276 21.6733 46.6134 21.759C46.0134 21.859 45.4278 21.959 44.8564 22.059C44.7707 22.0732 44.6921 22.0875 44.6207 22.1018C44.5492 22.1018 44.4778 22.1018 44.4064 22.1018C44.1207 22.1018 43.9279 22.0447 43.8279 21.9304C43.7422 21.8161 43.6993 21.6947 43.6993 21.5661C43.6993 21.4519 43.7279 21.3233 43.785 21.1805C43.8136 21.1233 43.835 21.0662 43.8493 21.009C44.3635 20.2805 44.9492 19.5663 45.6063 18.8663C46.2777 18.1664 46.9705 17.5022 47.6847 16.8736C48.4132 16.2308 49.1489 15.6309 49.8917 15.0738C50.6345 14.5167 51.3487 14.0024 52.0344 13.531C52.6629 13.1168 53.2415 12.7596 53.77 12.4597C54.2985 12.1597 54.7628 11.9097 55.1627 11.7097C55.6341 11.4812 56.0555 11.2883 56.4269 11.1312C56.4984 11.1026 56.5626 11.0741 56.6198 11.0455C56.7341 11.0026 56.8555 10.9812 56.984 10.9812C57.0983 10.9812 57.184 11.0098 57.2412 11.0669C57.2697 11.0955 57.284 11.1312 57.284 11.1741ZM65.3521 12.5882C65.3521 12.6025 65.295 12.6882 65.1807 12.8454C65.0664 12.9882 64.8879 13.1525 64.645 13.3382C64.4022 13.5096 64.0951 13.681 63.7237 13.8524C63.3523 14.0096 62.9023 14.1095 62.3738 14.1524H61.1739C60.8453 14.1524 60.4953 14.1453 60.1239 14.131C59.7525 14.1167 59.424 14.1024 59.1383 14.0881C59.0954 14.0881 59.0454 14.0953 58.9883 14.1095C58.9454 14.1095 58.9026 14.131 58.8597 14.1738C58.6598 14.3881 58.4598 14.6167 58.2598 14.8595C58.0884 15.0595 57.9098 15.288 57.7241 15.5452C57.5527 15.8023 57.3956 16.0594 57.2527 16.3165C57.2527 16.3879 57.2599 16.4379 57.2741 16.4665C57.3027 16.4951 57.3741 16.5165 57.4884 16.5308C58.2741 16.6022 58.9812 16.7736 59.6097 17.045C59.8811 17.1593 60.1382 17.3022 60.3811 17.4736C60.6382 17.645 60.8667 17.8593 61.0667 18.1164C61.2667 18.3592 61.4238 18.6449 61.5381 18.9735C61.6667 19.2877 61.731 19.6591 61.731 20.0877C61.731 21.0733 61.4738 21.9947 60.9596 22.8518C60.4596 23.7088 59.824 24.4516 59.0526 25.0802C58.2955 25.7087 57.467 26.2015 56.567 26.5586C55.6671 26.93 54.8315 27.1157 54.0601 27.1157C53.2316 27.1157 52.6316 26.9586 52.2602 26.6443C51.8745 26.3444 51.6817 26.0229 51.6817 25.6801C51.6817 25.1802 51.8317 24.9302 52.1317 24.9302C52.2174 24.9302 52.2817 24.9659 52.3245 25.0373C52.3531 25.0802 52.3745 25.1159 52.3888 25.1444C52.5031 25.473 52.6531 25.7301 52.8388 25.9158C53.0387 26.1158 53.2387 26.2658 53.4387 26.3658C53.653 26.4658 53.853 26.5229 54.0387 26.5372C54.2244 26.5658 54.3672 26.58 54.4672 26.58C55.3243 26.58 56.1314 26.3729 56.8885 25.9587C57.6598 25.5444 58.3241 25.0302 58.8812 24.4159C59.4525 23.8017 59.9025 23.1446 60.2311 22.4446C60.5596 21.7447 60.7239 21.109 60.7239 20.5376C60.7239 20.052 60.6239 19.6449 60.4239 19.3163C60.2382 18.9735 59.9954 18.6949 59.6954 18.4807C59.3954 18.2521 59.0669 18.0807 58.7097 17.9664C58.3526 17.8378 58.0098 17.745 57.6813 17.6879C57.367 17.6164 57.0813 17.5736 56.8242 17.5593C56.567 17.545 56.3956 17.5379 56.3099 17.5379C56.1242 17.5379 56.0099 17.5093 55.9671 17.4522C55.9385 17.395 55.9242 17.3522 55.9242 17.3236C55.9242 17.2522 55.9671 17.1522 56.0528 17.0236C56.1385 16.8808 56.2385 16.7379 56.3528 16.5951C56.4813 16.4379 56.617 16.2594 56.7599 16.0594C57.0027 15.7737 57.2527 15.4594 57.5098 15.1166C57.767 14.7738 58.0098 14.4452 58.2384 14.131C58.4955 13.7596 58.7455 13.4025 58.9883 13.0596C59.0026 13.0311 59.024 13.0096 59.0526 12.9953C59.0811 12.9811 59.1026 12.9668 59.1169 12.9525C59.1454 12.9382 59.1811 12.9382 59.224 12.9525C59.524 12.9811 59.8454 13.0096 60.1882 13.0382C60.4739 13.0668 60.8024 13.0953 61.1739 13.1239C61.5453 13.1382 61.9167 13.1453 62.2881 13.1453C62.6737 13.1453 63.0451 13.131 63.4023 13.1025C63.7737 13.0739 64.1022 13.0239 64.3879 12.9525C64.5593 12.9096 64.6879 12.8525 64.7736 12.7811C64.8736 12.7097 64.9593 12.6382 65.0307 12.5668L65.0736 12.524C65.0878 12.5097 65.1378 12.5025 65.2235 12.5025C65.3093 12.5025 65.3521 12.5311 65.3521 12.5882Z" fill="#ECE9F1"/>
</svg>
