<svg width="103" height="48" viewBox="0 0 103 48" fill="none" xmlns="http://www.w3.org/2000/svg">
<rect x="0.5" y="0.5" width="102" height="47" rx="3.5" fill="#0364CB"/>
<path fill-rule="evenodd" clip-rule="evenodd" d="M64.8321 13.3471C64.9255 13.2537 64.9721 13.1697 64.9721 13.0951C64.9721 13.0391 64.9535 12.9924 64.9161 12.9551C64.8415 12.8804 64.7295 12.8431 64.5801 12.8431C64.4121 12.8431 64.2535 12.8711 64.1041 12.9271C64.0295 12.9644 63.9455 13.0017 63.8521 13.0391C63.3668 13.2444 62.8161 13.4964 62.2001 13.7951C61.6775 14.0564 61.0708 14.3831 60.3801 14.7751C59.6895 15.1671 58.9335 15.6337 58.1121 16.1751C57.2161 16.7911 56.2828 17.4631 55.3121 18.1911C54.3415 18.9191 53.3801 19.7031 52.4281 20.5431C51.4948 21.3644 50.5895 22.2324 49.7121 23.1471C48.8535 24.0617 48.0881 24.9951 47.4161 25.9471C47.3975 26.0217 47.3695 26.0964 47.3321 26.1711C47.2575 26.3577 47.2201 26.5257 47.2201 26.6751C47.2201 26.8431 47.2761 27.0017 47.3881 27.1511C47.5188 27.3004 47.7708 27.3751 48.1441 27.3751H48.4241C48.5175 27.3564 48.6201 27.3377 48.7321 27.3191C49.4788 27.1884 50.2441 27.0577 51.0281 26.9271C51.7001 26.8151 52.4375 26.6937 53.2401 26.5631C54.0428 26.4324 54.8268 26.3204 55.5921 26.2271C54.8828 27.3097 54.2295 28.4297 53.6321 29.5871C53.0535 30.7444 52.6148 31.8831 52.3161 33.0031C52.3161 33.0404 52.3068 33.0871 52.2881 33.1431C52.2695 33.1991 52.2601 33.3017 52.2601 33.4511C52.2601 33.6377 52.2975 33.8057 52.3721 33.9551C52.4468 34.1231 52.6055 34.2071 52.8481 34.2071H52.9041C53.0348 34.2071 53.1468 34.1604 53.2401 34.0671C53.3335 33.9737 53.4268 33.8337 53.5201 33.6471C53.6135 33.4791 53.6881 33.2177 53.7441 32.8631C53.7815 32.5644 53.8841 32.1817 54.0521 31.7151C54.2015 31.3231 54.4068 30.8377 54.6681 30.2591C54.9295 29.6804 55.2841 28.9991 55.7321 28.2151C55.8255 28.0657 55.9281 27.8884 56.0401 27.6831C56.1335 27.4964 56.2548 27.2724 56.4041 27.0111C56.5721 26.7311 56.7681 26.4137 56.9921 26.0591C57.3281 26.0217 57.6455 25.9937 57.9441 25.9751C58.2615 25.9564 58.5788 25.9471 58.8961 25.9471C59.3815 25.9471 59.8108 25.9657 60.1841 26.0031C60.5575 26.0404 60.8748 26.0777 61.1361 26.1151C61.4348 26.1711 61.6961 26.2364 61.9201 26.3111C62.2375 26.4417 62.4708 26.5071 62.6201 26.5071C62.7695 26.5071 62.8535 26.4791 62.8721 26.4231C62.9095 26.3671 62.9281 26.3111 62.9281 26.2551C62.9095 26.0497 62.7975 25.8911 62.5921 25.7791C62.4055 25.6484 62.1908 25.5457 61.9481 25.4711C61.6681 25.3964 61.3601 25.3404 61.0241 25.3031C60.8748 25.2844 60.7161 25.2751 60.5481 25.2751C60.3801 25.2564 60.2028 25.2471 60.0161 25.2471C59.2135 25.2471 58.3455 25.3031 57.4121 25.4151C57.9535 24.6311 58.6255 23.6977 59.4281 22.6151C60.2308 21.5324 61.2201 20.3004 62.3961 18.9191C62.4708 18.8257 62.5081 18.7417 62.5081 18.6671C62.5081 18.6111 62.4895 18.5644 62.4521 18.5271C62.4335 18.5084 62.4148 18.4991 62.3961 18.4991C62.3215 18.4617 62.2281 18.4431 62.1161 18.4431C61.9481 18.4431 61.7988 18.4897 61.6681 18.5831C61.5935 18.6391 61.5375 18.6951 61.5001 18.7511C60.9401 19.3297 60.3521 19.9831 59.7361 20.7111C59.2135 21.3271 58.6255 22.0551 57.9721 22.8951C57.3375 23.7164 56.6935 24.6031 56.0401 25.5551C55.5735 25.6111 55.0228 25.6857 54.3881 25.7791C53.7721 25.8724 53.1561 25.9751 52.5401 26.0871C51.9428 26.1804 51.3921 26.2644 50.8881 26.3391C50.4028 26.4137 50.0481 26.4511 49.8241 26.4511C49.5815 26.4511 49.4321 26.4137 49.3761 26.3391C49.3015 26.2831 49.2641 26.1991 49.2641 26.0871C49.2641 25.9937 49.2828 25.9097 49.3201 25.8351L49.3761 25.7231C49.9735 24.6964 50.7015 23.7164 51.5601 22.7831C52.4188 21.8311 53.2588 20.9817 54.0801 20.2351C55.0321 19.3577 56.0121 18.5457 57.0201 17.7991C58.1961 16.9031 59.2321 16.1937 60.1281 15.6711C61.0241 15.1297 61.7801 14.7004 62.3961 14.3831C63.1241 14.0284 63.7588 13.7671 64.3001 13.5991C64.5801 13.5244 64.7575 13.4404 64.8321 13.3471ZM75.2912 15.2791C75.4406 15.0737 75.5152 14.9617 75.5152 14.9431C75.5152 14.8684 75.4592 14.8311 75.3472 14.8311C75.2352 14.8311 75.1699 14.8404 75.1512 14.8591L75.0952 14.9151C75.0019 15.0084 74.8899 15.1017 74.7592 15.1951C74.6472 15.2884 74.4792 15.3631 74.2552 15.4191C73.8819 15.5124 73.4526 15.5777 72.9672 15.6151C72.5006 15.6524 72.0152 15.6711 71.5112 15.6711C71.0259 15.6711 70.5406 15.6617 70.0552 15.6431C69.5699 15.6057 69.1406 15.5684 68.7672 15.5311C68.3192 15.4937 67.8992 15.4564 67.5072 15.4191C67.4512 15.4004 67.4046 15.4004 67.3672 15.4191C67.3486 15.4377 67.3206 15.4564 67.2832 15.4751C67.2459 15.4937 67.2179 15.5217 67.1992 15.5591C66.8819 16.0071 66.5552 16.4737 66.2192 16.9591C65.9206 17.3697 65.6032 17.7991 65.2672 18.2471C64.9312 18.6951 64.6046 19.1057 64.2872 19.4791C64.1006 19.7404 63.9232 19.9737 63.7552 20.1791C63.6059 20.3657 63.4752 20.5524 63.3632 20.7391C63.2512 20.9071 63.1952 21.0377 63.1952 21.1311C63.1952 21.1684 63.2139 21.2244 63.2512 21.2991C63.3072 21.3737 63.4566 21.4111 63.6992 21.4111C63.8112 21.4111 64.0352 21.4204 64.3712 21.4391C64.7072 21.4577 65.0806 21.5137 65.4912 21.6071C65.9206 21.6817 66.3686 21.8031 66.8352 21.9711C67.3019 22.1204 67.7312 22.3444 68.1232 22.6431C68.5152 22.9231 68.8326 23.2871 69.0752 23.7351C69.3366 24.1644 69.4672 24.6964 69.4672 25.3311C69.4672 26.0777 69.2526 26.9084 68.8232 27.8231C68.3939 28.7377 67.8059 29.5964 67.0592 30.3991C66.3312 31.2017 65.4632 31.8737 64.4552 32.4151C63.4659 32.9564 62.4112 33.2271 61.2912 33.2271C61.1606 33.2271 60.9739 33.2084 60.7312 33.1711C60.4886 33.1524 60.2272 33.0777 59.9472 32.9471C59.6859 32.8164 59.4246 32.6204 59.1632 32.3591C58.9206 32.1164 58.7246 31.7804 58.5752 31.3511C58.5566 31.3137 58.5286 31.2671 58.4912 31.2111C58.4352 31.1177 58.3512 31.0711 58.2392 31.0711C57.8472 31.0711 57.6512 31.3977 57.6512 32.0511C57.6512 32.4991 57.9032 32.9191 58.4072 33.3111C58.8926 33.7217 59.6766 33.9271 60.7592 33.9271C61.7672 33.9271 62.8592 33.6844 64.0352 33.1991C65.2112 32.7324 66.2939 32.0884 67.2832 31.2671C68.2912 30.4457 69.1219 29.4751 69.7752 28.3551C70.4472 27.2351 70.7832 26.0311 70.7832 24.7431C70.7832 24.1831 70.6992 23.6977 70.5312 23.2871C70.3819 22.8577 70.1766 22.4844 69.9152 22.1671C69.6539 21.8311 69.3552 21.5511 69.0192 21.3271C68.7019 21.1031 68.3659 20.9164 68.0112 20.7671C67.1899 20.4124 66.2659 20.1884 65.2392 20.0951C65.0899 20.0764 64.9966 20.0484 64.9592 20.0111C64.9406 19.9737 64.9312 19.9084 64.9312 19.8151C65.1179 19.4791 65.3232 19.1431 65.5472 18.8071C65.7899 18.4711 66.0232 18.1724 66.2472 17.9111C66.5086 17.5937 66.7699 17.2951 67.0312 17.0151C67.0872 16.9591 67.1432 16.9311 67.1992 16.9311C67.2739 16.9124 67.3392 16.9031 67.3952 16.9031C67.7686 16.9217 68.1979 16.9404 68.6832 16.9591C69.1686 16.9777 69.6259 16.9871 70.0552 16.9871H71.6232C72.3139 16.9311 72.9019 16.8004 73.3872 16.5951C73.8726 16.3711 74.2739 16.1471 74.5912 15.9231C74.9086 15.6804 75.1419 15.4657 75.2912 15.2791ZM42.0178 35.1569H46.5842L39.4749 15.0593H34.676L27.4846 35.1569H31.9143L33.3088 31.0144H40.7327L42.0178 35.1569ZM37.0549 19.5847L39.5569 27.5417H34.4299L37.0002 19.5847H37.0549Z" fill="#F5F5F5"/>
<rect x="0.5" y="0.5" width="102" height="47" rx="3.5" stroke="#F5F5F5"/>
</svg>
